PathFileType	4	(X/Y/Z)	Patient4_TMGait_0pt2_03_right_10.trc.trc
DataRate	CameraRate	NumFrames	NumMarkers	Units	OrigDataRate	OrigDataStartFrame	OrigNumFrames
45.751633986928	45.751633986928	4	33	mm	45.751633986928	106	       141
Frame#	Time	Sacral			L.Shoulder			Chest			R.Shoulder			Neck			R.ASIS			L.ASIS			R.Thigh.Superior			R.Thigh.Lateral			R.Thigh.Inferior			R.Patella			L.Thigh.Superior			L.Thigh.Lateral			L.Thigh.Inferior			L.Patella			L.Shank.Superior			L.Shank.Lateral			L.Shank.Inferior			R.Shank.Superior			R.Shank.Lateral			R.Shank.Inferior			R.Heel			R.Midfoot.Superior			R.Midfoot.Lateral			R.Toe			L.Heel			L.Midfoot.Lateral			L.Midfoot.Superior			L.Toe			L.Elbow			L.Wrist			R.Elbow			R.Wrist			
		X1	Y1	Z1	X2	Y2	Z2	X3	Y3	Z3	X4	Y4	Z4	X5	Y5	Z5	X6	Y6	Z6	X7	Y7	Z7	X8	Y8	Z8	X9	Y9	Z9	X10	Y10	Z10	X11	Y11	Z11	X12	Y12	Z12	X13	Y13	Z13	X14	Y14	Z14	X15	Y15	Z15	X16	Y16	Z16	X17	Y17	Z17	X18	Y18	Z18	X19	Y19	Z19	X20	Y20	Z20	X21	Y21	Z21	X22	Y22	Z22	X23	Y23	Z23	X24	Y24	Z24	X25	Y25	Z25	X26	Y26	Z26	X27	Y27	Z27	X28	Y28	Z28	X29	Y29	Z29	X30	Y30	Z30	X31	Y31	Z31	X32	Y32	Z32	X33	Y33	Z33	

106	23.635000000000	746.922236975522	989.762744985071	408.866165841258	932.308012185063	1426.267463534981	248.717788843725	1014.264968492339	1357.767103674261	420.454749341150	909.546356530063	1425.277276019293	583.714544038313	889.000940244121	1485.502407053318	404.528849589385	968.139243132718	935.951197729426	546.679133421942	978.885928629140	955.508138361554	272.647568613517	1052.641944393284	754.086181017125	514.235115345755	1004.919100035963	636.958342189067	584.930098871111	1090.198106449300	592.390202455384	502.902384827577	1104.374404399411	480.959365950389	529.209214119174	1042.996219183647	748.844991018230	321.515550591329	969.681907933381	612.940544769459	255.324722647478	1054.554840315694	554.423413249903	340.154618153886	1059.522889714603	481.991802774080	352.357313809633	1024.126446428414	404.493635032337	343.837600634914	933.491523786466	296.688872138188	281.338507680883	957.172116844934	185.562091017314	363.705128518894	1026.185339989028	410.241766190228	545.489468408478	902.832594903952	376.705895575647	604.696229088289	892.523479459608	263.449919009642	567.858664758021	694.448472944374	189.982899794743	536.323947326697	861.536213290572	152.189301591587	598.079038173598	751.256506427318	149.400972140880	622.658069073389	929.874815798440	52.004544097160	646.905650086668	810.482505876147	38.017184765782	388.577817995125	892.640950150628	35.476677122219	315.810993600536	972.412357784473	96.122518383773	352.681989895978	1102.673468403741	47.445468248460	336.416086794635	1039.074676112680	1100.253625122583	114.244631855520	1265.188660252785	974.235468177058	156.122569672154	799.548457398363	1091.797502483511	687.085343582803	791.732430029629	829.186880169262	699.532336319308	
107	23.656857142857	745.991455590803	990.052668051536	406.172851292839	936.476381807372	1427.150202564129	250.969739903253	1014.246419024309	1357.415909394648	424.124417702838	905.946246411588	1424.496801044272	585.263163672483	889.915852695630	1485.596702742953	406.369531100670	965.054520877399	936.109755369639	547.541419354512	979.864558087813	955.410066172968	273.565989690874	1049.887498672926	754.495123810909	516.138809285953	1001.279513116509	637.609169639167	586.766918569454	1087.044007820797	593.055256811239	505.619386244087	1102.885871874715	483.679889484621	532.315057620120	1041.995222524635	748.085948608818	322.407938743923	968.526681110513	612.596693252436	255.449134214367	1052.521950220719	553.731601561951	340.767785125736	1057.157542380480	481.326068593723	352.959817910592	1021.297121828525	403.847952451217	344.269872866005	930.427424793628	296.468416108231	281.484783205042	953.378580221959	185.188988509257	363.798908731876	1028.930978241407	410.353730527214	548.478562079601	908.446673569829	368.889637546501	607.525764514053	906.023966765689	255.126521472183	570.558346173249	713.746584657070	166.890713866418	538.791846647975	883.253427441955	142.780975524244	600.408050699561	773.789215406729	131.414866676906	625.333104915801	959.539733021699	48.970499061551	649.666826987013	806.079538158358	38.016096586112	388.518114452566	888.275173442628	35.464837510712	315.763302162027	968.119263185134	96.032670352567	352.718768067608	1098.353193903171	47.211748725387	336.411372604569	1049.748251301555	1105.139180660208	114.212246611502	1279.680372621452	987.278015077398	158.485192245543	783.990697185862	1094.666773029870	684.105803823241	770.226380780815	832.797390195662	695.415920859433	
108	23.678714285714	745.018148487783	991.074543566673	403.813908735603	940.866057641363	1428.470546156915	253.486267072109	1014.242519080753	1357.596519837356	428.065346597857	902.290611718741	1424.466747520896	586.852100075079	890.938799301000	1486.236956447235	408.291290743514	961.697087103399	936.899038091244	548.926028355370	980.718157300625	955.698613282039	275.080096632545	1046.474656469343	755.278469336297	518.769344586780	996.596463589446	638.696822364396	589.350305119887	1082.864397077270	593.988036737334	509.277653203401	1100.362586693611	486.966208653004	536.212614432526	1040.310504782232	747.485117199841	323.706918578316	966.318108401208	612.696202946872	255.775104953767	1049.245283913870	553.215920410969	341.476741940628	1053.362375857875	480.957021727563	353.617152406785	1017.336174665767	403.602526857757	344.671391493700	926.523453042595	296.410477132843	281.625538754738	949.153588293162	185.037208710376	363.881177387798	1031.099352048817	411.051876753103	552.240173670139	914.341471975157	361.264770243747	611.536456332406	920.105946293664	247.468611730630	574.274930561115	734.775735230118	144.396443811968	542.827319776262	906.056797291339	134.087963793489	603.661753471452	798.058605065475	114.009866405293	629.239328864604	990.135476496433	47.013030282271	652.742412250797	801.650649922027	37.991468964849	388.462491898580	883.877195044030	35.447681608678	315.718223518617	963.756160764805	95.982895669447	352.726745745968	1093.981526104725	47.084900794478	336.408427719604	1060.777880131542	1110.682730189371	114.746273110744	1294.122536369646	1001.088409256918	161.529000518191	769.767163483544	1098.019236262588	680.737657045459	752.408815015986	836.822378531236	690.697032811774	
109	23.700571428571	744.025133902159	992.780702502591	401.810789914367	945.411186033842	1430.192596747210	256.283239540232	1014.261258554926	1358.271129620889	432.255076896742	898.666053094886	1425.140222783901	588.500762320119	892.067448819584	1487.381292391570	410.323566039321	958.106962499706	938.262734963795	550.808944691357	981.452426112675	956.356491823278	277.175249868590	1042.478439798028	756.423215228563	522.084182324137	991.010516951501	640.192131266348	592.612054940224	1077.802691757262	595.191461939048	513.774167918842	1096.897732027966	490.763987966711	540.739168847716	1037.974539340620	747.040955186187	325.408909288623	963.132099729292	613.227204291301	256.280063573555	1044.791347610214	552.874353753572	342.280316008581	1048.207798550283	480.874549780432	354.317240771916	1012.309738148746	403.747698261991	345.033777787917	921.834054016930	296.511294735010	281.745420978839	944.514431223132	185.100965066169	363.955949771885	1032.677748568337	412.383910939134	556.594146211883	920.469818509536	354.217846537391	616.546325418013	934.425556592629	240.929198772986	578.808592656784	757.029262316733	123.508563931507	548.231744226032	929.362919866617	126.704572233519	607.637193107783	823.491612462160	98.064684099616	634.150600580068	1020.816760264531	46.554282871195	655.877968757121	797.196464945970	37.944987485762	388.410232612529	879.446982098296	35.425228624966	315.677502571865	959.326635032863	95.969926898846	352.712289035832	1089.559538589972	47.060973404738	336.412851932308	1071.971901063520	1116.784283950199	115.915736983149	1308.393316817167	1015.709230919051	165.341060593934	757.130855102429	1101.664136239770	677.083212102563	738.217826640204	840.909600323165	685.578438783409	
